<svg xmlns="http://www.w3.org/2000/svg" viewBox="0 0 220 104" fill="none">
  <defs>
    <linearGradient id="qg" x1="0" y1="0" x2="0" y2="1">
      <stop offset="0" stop-color="#6cb7ec"/>
      <stop offset="1" stop-color="#2e6da4"/>
    </linearGradient>
  </defs>
  <g fill="url(#qg)">
    <!-- نقاط فوق القمة -->
    <circle cx="110" cy="6" r="2.4"/>
    <circle cx="99" cy="12" r="1.8"/>
    <circle cx="121" cy="14" r="1.8"/>
    <circle cx="90" cy="20" r="1.5"/>
    <circle cx="131" cy="22" r="1.5"/>
    <!-- أعمدة الجبل -->
    <rect x="48"  y="50" width="3.6" height="14" rx="1.8"/>
    <rect x="56"  y="46" width="3.6" height="18" rx="1.8"/>
    <rect x="64"  y="41" width="3.6" height="23" rx="1.8"/>
    <rect x="72"  y="44" width="3.6" height="20" rx="1.8"/>
    <rect x="80"  y="37" width="3.6" height="27" rx="1.8"/>
    <rect x="88"  y="31" width="3.6" height="33" rx="1.8"/>
    <rect x="96"  y="26" width="3.6" height="38" rx="1.8"/>
    <rect x="104" y="18" width="3.6" height="46" rx="1.8"/>
    <rect x="112" y="14" width="3.6" height="50" rx="1.8"/>
    <rect x="120" y="20" width="3.6" height="44" rx="1.8"/>
    <rect x="128" y="27" width="3.6" height="37" rx="1.8"/>
    <rect x="136" y="33" width="3.6" height="31" rx="1.8"/>
    <rect x="144" y="38" width="3.6" height="26" rx="1.8"/>
    <rect x="152" y="44" width="3.6" height="20" rx="1.8"/>
    <rect x="160" y="41" width="3.6" height="23" rx="1.8"/>
    <rect x="168" y="47" width="3.6" height="17" rx="1.8"/>
  </g>
  <text x="110" y="96" text-anchor="middle" font-family="'Segoe UI',Tahoma,Arial,sans-serif" font-size="28" font-weight="600" letter-spacing="0.5" fill="url(#qg)">Qiddiya</text>
</svg>
